<?xml version="1.0" encoding="utf-8"?>
<!-- Generator: Adobe Illustrator 16.0.0, SVG Export Plug-In . SVG Version: 6.00 Build 0)  -->
<!DOCTYPE svg PUBLIC "-//W3C//DTD SVG 1.1//EN" "http://www.w3.org/Graphics/SVG/1.1/DTD/svg11.dtd">
<svg version="1.1" id="Laag_1" xmlns="http://www.w3.org/2000/svg" xmlns:xlink="http://www.w3.org/1999/xlink" x="0px" y="0px"
	 width="623.62px" height="623.62px" viewBox="0 0 623.62 623.62" enable-background="new 0 0 623.62 623.62" xml:space="preserve">
<path fill="#1D1D1B" d="M480.744,373.204h-75.195l-9.877-16.827h-48.754v-147.26c34.32-13.379,58.653-46.759,58.653-85.826
	c0-50.846-41.226-92.06-92.065-92.06c-50.852,0-92.065,41.214-92.065,92.06c0,39.067,24.322,72.447,58.642,85.826v147.26H231.34
	l-9.878,16.827h-75.184L36.086,453.578l40.187,129.63h237.233h237.222l40.198-129.63L480.744,373.204z M254.755,88.611
	c0-20.083,16.27-36.374,36.374-36.374c20.082,0,36.362,16.291,36.362,36.374c0,20.088-16.28,36.368-36.362,36.368
	C271.024,124.979,254.755,108.699,254.755,88.611z M110.145,453.578l62.193-45.366h28.605l-11.21,19.089h123.773l0,0h123.752
	l-11.167-19.089h28.583l62.193,45.366H110.145z"/>
</svg>
